<?xml version="1.0" encoding="UTF-8" standalone="no"?>
<svg
   width="32"
   height="32"
   viewBox="0 0 32 32"
   version="1.1"
   id="svg1"
   sodipodi:docname="cover_32x32.svg"
   inkscape:version="1.4.4 (dcaf3e7d9e, 2026-05-05)"
   xmlns:inkscape="http://www.inkscape.org/namespaces/inkscape"
   xmlns:sodipodi="http://sodipodi.sourceforge.net/DTD/sodipodi-0.dtd"
   xmlns="http://www.w3.org/2000/svg"
   xmlns:svg="http://www.w3.org/2000/svg">
  <defs
     id="defs3051">
    <style
       type="text/css"
       id="current-color-scheme">
      .ColorScheme-Text {
      color:#4d4d4d;
      }
      </style>
  </defs>
  <sodipodi:namedview
     id="namedview1"
     pagecolor="#ffffff"
     bordercolor="#000000"
     borderopacity="0.25"
     inkscape:showpageshadow="false"
     inkscape:pageopacity="0.0"
     inkscape:pagecheckerboard="true"
     inkscape:deskcolor="#d1d1d1"
     showgrid="true"
     inkscape:zoom="35.456489"
     inkscape:cx="12.169846"
     inkscape:cy="12.846732"
     inkscape:window-width="2542"
     inkscape:window-height="1365"
     inkscape:window-x="0"
     inkscape:window-y="0"
     inkscape:window-maximized="1"
     inkscape:current-layer="svg1"
     showguides="true">
    <inkscape:grid
       id="grid1"
       units="px"
       originx="-88"
       originy="-88"
       spacingx="1"
       spacingy="1"
       empcolor="#0099e5"
       empopacity="0.30196078"
       color="#0099e5"
       opacity="0.14902"
       empspacing="5"
       enabled="true"
       visible="true" />
    <sodipodi:guide
       position="0,48"
       orientation="1,0"
       id="guide5"
       inkscape:locked="false" />
    <sodipodi:guide
       position="5,64"
       orientation="0,-1"
       id="guide6"
       inkscape:locked="false" />
    <sodipodi:guide
       position="33,32"
       orientation="0,-1"
       id="guide9"
       inkscape:locked="false" />
    <sodipodi:guide
       position="32,32"
       orientation="1,0"
       id="guide10"
       inkscape:locked="false" />
    <sodipodi:guide
       position="1,30"
       orientation="60,0"
       id="guide1"
       inkscape:locked="false" />
    <sodipodi:guide
       position="32,31"
       orientation="0,-60"
       id="guide4"
       inkscape:locked="false" />
    <sodipodi:guide
       position="31,1"
       orientation="0,-1"
       id="guide2"
       inkscape:locked="false" />
    <sodipodi:guide
       position="31,13"
       orientation="1,0"
       id="guide3"
       inkscape:locked="false" />
  </sodipodi:namedview>
  <path
     id="rect2"
     style="fill:currentColor;fill-opacity:1;stroke:none;stroke-width:0.5"
     class="ColorScheme-Text"
     d="M 3.5 1 C 2.115 1 1 2.115 1 3.5 L 1 28.5 C 1 29.885 2.115 31 3.5 31 L 28.5 31 C 29.885 31 31 29.885 31 28.5 L 31 20 L 31 19 L 30 19 C 28.343146 19 27 17.656854 27 16 C 27 14.343146 28.343146 13 30 13 L 31 13 L 31 12 L 31 3.5 C 31 2.115 29.885 1 28.5 1 L 3.5 1 z M 10 9 L 22 9 L 22 13 L 22 21 A 3 3 0 0 1 19 24 A 3 3 0 0 1 16 21 A 3 3 0 0 1 19 18 A 3 3 0 0 1 20 18.171875 L 20 14 L 12 14 L 12 21 A 3 3 0 0 1 9 24 A 3 3 0 0 1 6 21 A 3 3 0 0 1 9 18 A 3 3 0 0 1 10 18.171875 L 10 14 L 10 9 z " />
</svg>
